<svg xmlns="http://www.w3.org/2000/svg" viewBox="0 0 128 128" width="100%" height="100%" preserveAspectRatio="xMidYMid meet" data-aspect-ratio="1" style=";display:block;aspect-ratio:1;--icon-color0:#1a5964;--icon-color1:#137078;--icon-color2:#0e8085;--icon-color3:#0c858a;--icon-color4:#0a8b8f;--icon-color5:#079ea0;--icon-color6:#14878e;--icon-color7:#256a77;--icon-color8:#b4b4b4;--icon-color9:#03abab;--icon-color10:#137980;--icon-color11:#0f5d64;--icon-color12:#097a7e;--icon-color13:#049395;--icon-color14:#01a3a3;--icon-color15:#00a8a8;--icon-color16:#4ebcc1;--icon-color17:#00a9a9;--icon-color18:#049496;--icon-color19:#088286;--icon-color20:#20626e;--icon-color21:#069d9f;--icon-color22:#99cbd2;--icon-color23:#498f93;--icon-color24:#2e7b7d" data-original-colors="#1a5964,#137078,#0e8085,#0c858a,#0a8b8f,#079ea0,#14878e,#256a77,#b4b4b4,#03abab,#137980,#0f5d64,#097a7e,#049395,#01a3a3,#00a8a8,#4ebcc1,#00a9a9,#049496,#088286,#20626e,#069d9f,#99cbd2,#498f93,#2e7b7d"><defs><linearGradient id="maya-original-a" gradientUnits="userSpaceOnUse" x1="100.777" y1="85.094" x2="86.576" y2="91.058"><stop offset=".09" stop-color="var(--icon-color0)"/><stop offset=".3" stop-color="var(--icon-color1)"/><stop offset=".5" stop-color="var(--icon-color2)"/><stop offset=".66" stop-color="var(--icon-color3)"/><stop offset="1" stop-color="var(--icon-color4)"/></linearGradient><linearGradient id="maya-original-b" gradientUnits="userSpaceOnUse" x1="99.581" y1="56.123" x2="130.166" y2="75.523"><stop offset="0" stop-color="var(--icon-color5)"/><stop offset=".43" stop-color="var(--icon-color6)"/><stop offset="1" stop-color="var(--icon-color7)"/></linearGradient><linearGradient id="maya-original-c" gradientUnits="userSpaceOnUse" x1="112" y1="16.835" x2="112" y2="120.497"><stop offset="0" stop-color="var(--icon-color8)"/><stop offset=".8" stop-color="var(--icon-color9)"/><stop offset="1" stop-color="var(--icon-color10)"/></linearGradient><linearGradient id="maya-original-d" gradientUnits="userSpaceOnUse" x1="59.349" y1="57.417" x2="135.485" y2="42.575"><stop offset="0" stop-color="var(--icon-color11)"/><stop offset=".1" stop-color="var(--icon-color12)"/><stop offset=".23" stop-color="var(--icon-color13)"/><stop offset=".34" stop-color="var(--icon-color14)"/><stop offset=".43" stop-color="var(--icon-color15)"/><stop offset="1" stop-color="var(--icon-color16)"/></linearGradient><linearGradient id="maya-original-e" gradientUnits="userSpaceOnUse" x1="-10.003" y1="72.033" x2="26.772" y2="50.748"><stop offset="0" stop-color="var(--icon-color17)"/><stop offset=".65" stop-color="var(--icon-color18)"/><stop offset="1" stop-color="var(--icon-color19)"/></linearGradient><linearGradient id="maya-original-f" gradientUnits="userSpaceOnUse" x1="2.06" y1="91.643" x2="32.014" y2="89.985"><stop offset="0" stop-color="var(--icon-color20)"/><stop offset="1" stop-color="var(--icon-color21)"/></linearGradient><linearGradient id="maya-original-g" gradientUnits="userSpaceOnUse" x1="41.036" y1="5.266" x2="36.336" y2="101.578"><stop offset="0" stop-color="var(--icon-color22)"/><stop offset=".9" stop-color="var(--icon-color23)"/><stop offset="1" stop-color="var(--icon-color24)"/></linearGradient></defs><path fill="url(#maya-original-a)" d="M98 121h3V49l-6 9v56l3 7z"/><path fill="url(#maya-original-b)" d="M98 121V51l23-44h5v54l-22 60h-6"/><path fill="url(#maya-original-c)" d="M126 121H98c2.9-5.7 14.1-29.2 19-48 8.5-33.1 9-58 9-58v106z"/><path fill="url(#maya-original-d)" d="M126 7H89L63 69l11 30h1c.4 0 1-.3 2-2 4.1-7.6 49-90 49-90z"/><path fill="url(#maya-original-e)" d="M2 121.7l3-.7 27-49V56L5 9 2 7.4v114.3z"/><path fill="url(#maya-original-f)" d="M32 59.1c-2.3 6.9-7.9 23.6-13.6 34.3C8.2 113 2 121.7 2 121.7s23.7 2 30-5.7V60v-.9z"/><path fill="url(#maya-original-g)" d="M52 97c1 1.8 1.6 2 2 2h21c.2-.2.4-.4.4-.7-.1-.4-.2-.9-.4-1.3L38 4 2 7.4S47.7 89.2 52 97z"/><metadata xmlns="">{"aspectRatio":1,"originalColors":["#1a5964","#137078","#0e8085","#0c858a","#0a8b8f","#079ea0","#14878e","#256a77","#b4b4b4","#03abab","#137980","#0f5d64","#097a7e","#049395","#01a3a3","#00a8a8","#4ebcc1","#00a9a9","#049496","#088286","#20626e","#069d9f","#99cbd2","#498f93","#2e7b7d"]}</metadata></svg>