<?xml version="1.0" encoding="UTF-8"?>
<svg id="Layer_2" xmlns="http://www.w3.org/2000/svg" version="1.1" viewBox="0 0 242.81 250">
  <!-- Generator: Adobe Illustrator 29.6.0, SVG Export Plug-In . SVG Version: 2.1.1 Build 207)  -->
  <defs>
    <style>
      .st0 {
        fill: #f47836;
      }
    </style>
  </defs>
  <path class="st0" d="M161.36,136.69c-5.14-25.18-31.09-54.99-59.61-61.41-29.55-6.68-49.59-6.94-72.71,8.74-6.94,4.62-18.24,12.33-29.03,24.15v39.06c15.16-32.89,49.59-60.12,88.13-50.36,65.52,16.7,54.99,62.95,47.28,81.71-14.13,33.66-66.03,48.3-82.22,16.19-17.47-34.94,21.33-40.85,21.33-40.85,0,0-10.02,9.76,2.57,22.61,8.74,8.99,25.44.77,31.35-14.9,5.14-13.87-5.91-32.89-29.81-34.94-20.04-1.8-50.1,13.36-53.19,44.19-2.83,29.03,10.02,41.11,29.03,53.96,18.76,12.85,58.84,17.73,81.96-4.88,24.67-24.41,31.86-49.59,24.92-83.25M0,0v76.57c11.56-10.02,21.07-15.16,21.33-15.42,41.88-24.15,78.62-12.33,100.21-5.4,34.17,10.79,61.15,37.77,72.71,65.52,13.62,32.12,1.8,93.78-43.94,124.87-2.06,1.28-4.11,2.57-5.91,3.6h98.41V0H0ZM0,208.64v29.55c1.54,1.28,3.08,2.31,4.37,3.34-1.28-.51-2.83-1.28-4.37-2.06v10.53h42.65c-3.08-1.8-6.17-3.34-8.48-5.14C21.58,235.87,7.97,223.8,0,208.64Z"/>
</svg>